<?xml version="1.0" standalone="no"?>
<!DOCTYPE svg PUBLIC "-//W3C//DTD SVG 20010904//EN"
 "http://www.w3.org/TR/2001/REC-SVG-20010904/DTD/svg10.dtd">
<svg version="1.0" xmlns="http://www.w3.org/2000/svg"
 width="700.000000pt" height="700.000000pt" viewBox="0 0 700.000000 700.000000"
 preserveAspectRatio="xMidYMid meet">
<metadata>
Created by potrace 1.14, written by Peter Selinger 2001-2017
</metadata>
<g transform="translate(0.000000,700.000000) scale(0.100000,-0.100000)"
fill="#000000" stroke="none">
<path d="M3175 6595 c-426 -92 -792 -292 -1097 -598 -50 -50 -107 -112 -127
-137 -20 -24 -44 -54 -54 -65 -44 -49 -190 -280 -241 -380 -141 -282 -237
-616 -232 -810 2 -79 6 -98 36 -158 53 -110 153 -192 265 -217 34 -8 255 -12
688 -12 l637 0 0 -724 c0 -476 -3 -724 -10 -724 -5 0 -10 5 -10 10 0 6 -7 10
-15 10 -8 0 -15 4 -15 9 0 12 -131 75 -200 96 -77 23 -240 28 -345 10 -435
-76 -760 -415 -821 -855 -36 -262 50 -646 203 -905 99 -168 304 -387 457 -489
285 -191 555 -271 901 -270 173 1 258 9 445 45 253 48 572 170 765 293 30 20
58 36 60 36 9 0 192 134 247 181 100 84 221 204 295 294 105 126 103 123 154
200 223 334 357 686 404 1060 16 125 22 444 10 570 -3 39 -8 93 -11 120 -6 70
-12 113 -35 255 -168 1031 -790 1987 -1665 2559 -56 36 -109 71 -119 77 -15 8
-19 25 -20 111 -3 147 -45 249 -132 326 -113 100 -231 123 -418 82z m230 -239
c17 -9 41 -32 55 -52 l25 -38 0 -753 c1 -810 1 -813 -51 -894 -49 -78 -135
-139 -218 -154 -49 -10 -1390 -11 -1436 -1 -63 12 -120 82 -120 146 0 97 62
349 126 512 142 361 382 675 689 902 218 162 479 280 736 335 101 22 147 21
194 -3z m411 -612 c676 -483 1150 -1146 1384 -1934 32 -109 57 -210 66 -270 3
-19 8 -38 10 -41 3 -6 38 -227 48 -309 3 -25 8 -96 12 -157 l6 -113 -68 -1
c-333 -5 -427 6 -507 63 -100 70 -153 161 -164 283 -7 73 -24 110 -63 130 -62
32 -136 10 -163 -47 -34 -72 2 -254 75 -375 18 -31 60 -82 92 -114 l59 -59
-59 -59 c-71 -72 -115 -142 -149 -239 -33 -94 -41 -214 -17 -255 24 -40 60
-60 106 -59 74 3 110 47 120 142 7 75 11 90 40 148 29 57 78 111 134 146 74
46 117 53 318 55 l190 2 25 -39 26 -40 -13 -98 c-17 -119 -39 -223 -70 -324
-27 -89 -71 -214 -84 -238 -5 -9 -32 -64 -60 -122 -154 -313 -409 -606 -709
-815 -63 -44 -78 -46 -146 -27 -75 21 -119 47 -169 98 -61 61 -94 132 -106
227 -11 88 -19 107 -54 130 -59 39 -127 27 -165 -28 -22 -32 -23 -42 -18 -118
12 -183 109 -353 261 -455 l38 -26 -43 -19 c-132 -57 -381 -125 -519 -142 -30
-4 -68 -9 -85 -11 -16 -2 -88 -6 -158 -9 l-128 -5 51 58 c58 64 123 190 139
270 14 67 14 164 0 194 -5 13 -26 34 -44 47 -48 32 -113 23 -150 -20 -14 -17
-25 -36 -26 -42 -1 -7 -3 -34 -5 -61 -9 -111 -47 -190 -120 -255 -88 -78 -222
-114 -301 -82 -56 23 -197 101 -227 125 -15 12 -55 43 -89 70 -122 97 -257
267 -331 416 -135 271 -178 597 -105 806 11 33 21 64 23 69 15 58 102 184 176
256 87 83 239 168 333 185 17 2 34 7 39 10 20 12 192 15 241 4 155 -36 280
-157 320 -311 20 -77 15 -209 -10 -251 -27 -46 -62 -60 -160 -61 -78 -2 -86 0
-104 22 -11 14 -19 39 -19 63 0 75 -47 127 -118 130 -46 1 -75 -13 -116 -59
-196 -219 -202 -555 -13 -781 50 -59 84 -82 125 -82 48 0 80 17 102 52 35 58
25 112 -33 173 -59 62 -95 157 -92 240 4 81 2 78 33 57 95 -68 333 -74 465
-12 96 45 167 156 186 294 5 33 9 511 9 1061 1 550 1 1008 1 1018 1 9 7 17 15
17 21 0 105 39 161 75 131 84 230 239 252 395 4 25 7 280 7 567 1 288 4 523 7
523 3 0 42 -25 85 -56z"/>
<path d="M2630 5574 c-80 -20 -136 -52 -202 -113 -207 -191 -179 -529 56 -691
140 -96 326 -105 478 -23 71 38 149 120 185 194 127 260 -13 559 -298 634 -62
17 -151 16 -219 -1z m219 -255 c41 -23 100 -97 102 -128 1 -9 2 -29 4 -45 3
-37 -14 -94 -36 -123 l-17 -23 -6 33 c-9 46 -43 107 -78 139 -55 49 -96 63
-186 63 -45 0 -82 2 -82 5 1 8 23 32 52 58 60 54 172 64 247 21z m-191 -336
c-2 -10 -10 -18 -18 -18 -8 0 -16 8 -18 18 -2 12 3 17 18 17 15 0 20 -5 18
-17z"/>
<path d="M4385 4872 c-16 -1 -52 -10 -80 -18 -244 -75 -413 -283 -431 -534 -6
-68 -4 -78 18 -110 15 -22 39 -40 64 -49 37 -13 44 -12 80 5 47 23 70 66 77
148 14 163 157 306 323 322 89 8 123 22 145 58 23 38 24 77 3 121 -26 55 -80
71 -199 57z"/>
<path d="M4423 4076 c-57 -26 -81 -108 -47 -165 24 -41 50 -53 132 -62 199
-22 322 -152 336 -356 7 -110 72 -162 160 -129 56 21 78 61 77 134 -2 153 -61
300 -165 410 -50 54 -172 130 -244 153 -88 27 -206 34 -249 15z"/>
<path d="M3536 3589 c-36 -29 -49 -63 -47 -129 7 -237 175 -458 411 -539 88
-31 215 -39 258 -17 83 43 81 171 -3 210 -16 7 -61 16 -100 20 -180 15 -311
152 -328 342 -6 60 -17 85 -53 113 -36 28 -102 28 -138 0z"/>
<path d="M3965 2695 c-270 -60 -457 -276 -472 -546 -5 -84 -5 -87 23 -118 39
-43 90 -54 141 -31 48 22 69 60 72 129 9 188 169 340 361 341 99 0 160 82 125
166 -28 68 -118 89 -250 59z"/>
<path d="M4822 2164 c-43 -22 -58 -54 -66 -139 -18 -191 -152 -322 -349 -341
-72 -7 -112 -34 -125 -85 -12 -47 -11 -54 10 -94 23 -44 61 -60 130 -58 232 6
442 156 532 379 29 72 39 127 39 217 1 62 -2 70 -30 98 -37 38 -94 47 -141 23z"/>
</g>
</svg>
